<svg xmlns:xlink="http://www.w3.org/1999/xlink" width="26" xmlns="http://www.w3.org/2000/svg" height="26" id="screenshot-eba46612-bd99-80f6-8002-e5bd55ba19bd" viewBox="-1 -1 26 26" style="-webkit-print-color-adjust: exact;" fill="none" version="1.1"><g id="shape-eba46612-bd99-80f6-8002-e5bd55ba19bd" width="24" class="feather feather-codepen" height="24" rx="0" ry="0" style="fill: rgb(0, 0, 0);"><g id="shape-eba46612-bd99-80f6-8002-e5bd55bf438e"><g class="fills" id="fills-eba46612-bd99-80f6-8002-e5bd55bf438e"><path fill="none" stroke-linecap="round" stroke-linejoin="round" rx="0" ry="0" d="M12.000,2.000L22.000,8.500L22.000,15.500L12.000,22.000L2.000,15.500L2.000,8.500L12.000,2.000ZZ" style="fill: none;"/></g><g id="strokes-eba46612-bd99-80f6-8002-e5bd55bf438e" class="strokes"><g class="stroke-shape"><path stroke-linecap="round" stroke-linejoin="round" rx="0" ry="0" d="M12.000,2.000L22.000,8.500L22.000,15.500L12.000,22.000L2.000,15.500L2.000,8.500L12.000,2.000ZZ" style="fill: none; stroke-width: 2; stroke: rgb(254, 251, 251);"/></g></g></g><g id="shape-eba46612-bd99-80f6-8002-e5bd55bfa523"><g class="fills" id="fills-eba46612-bd99-80f6-8002-e5bd55bfa523"><path fill="none" stroke-linejoin="round" stroke-linecap="round" rx="0" ry="0" d="M12.000,22.000L12.000,15.500" style="fill: none;"/></g><g id="strokes-eba46612-bd99-80f6-8002-e5bd55bfa523" class="strokes"><g class="stroke-shape"><path stroke-linejoin="round" stroke-linecap="round" rx="0" ry="0" d="M12.000,22.000L12.000,15.500" style="fill: none; stroke-width: 2; stroke: rgb(254, 251, 251);"/></g></g></g><g id="shape-eba46612-bd99-80f6-8002-e5bd55bfa524"><g class="fills" id="fills-eba46612-bd99-80f6-8002-e5bd55bfa524"><path fill="none" stroke-linecap="round" stroke-linejoin="round" rx="0" ry="0" d="M22.000,8.500L12.000,15.500L2.000,8.500" style="fill: none;"/></g><g id="strokes-eba46612-bd99-80f6-8002-e5bd55bfa524" class="strokes"><g class="stroke-shape"><path stroke-linecap="round" stroke-linejoin="round" rx="0" ry="0" d="M22.000,8.500L12.000,15.500L2.000,8.500" style="fill: none; stroke-width: 2; stroke: rgb(254, 251, 251);"/></g></g></g><g id="shape-eba46612-bd99-80f6-8002-e5bd55bfa525"><g class="fills" id="fills-eba46612-bd99-80f6-8002-e5bd55bfa525"><path fill="none" stroke-linecap="round" stroke-linejoin="round" rx="0" ry="0" d="M2.000,15.500L12.000,8.500L22.000,15.500" style="fill: none;"/></g><g id="strokes-eba46612-bd99-80f6-8002-e5bd55bfa525" class="strokes"><g class="stroke-shape"><path stroke-linecap="round" stroke-linejoin="round" rx="0" ry="0" d="M2.000,15.500L12.000,8.500L22.000,15.500" style="fill: none; stroke-width: 2; stroke: rgb(254, 251, 251);"/></g></g></g><g id="shape-eba46612-bd99-80f6-8002-e5bd55bfe52d"><g class="fills" id="fills-eba46612-bd99-80f6-8002-e5bd55bfe52d"><path fill="none" stroke-linejoin="round" stroke-linecap="round" rx="0" ry="0" d="M12.000,2.000L12.000,8.500" style="fill: none;"/></g><g id="strokes-eba46612-bd99-80f6-8002-e5bd55bfe52d" class="strokes"><g class="stroke-shape"><path stroke-linejoin="round" stroke-linecap="round" rx="0" ry="0" d="M12.000,2.000L12.000,8.500" style="fill: none; stroke-width: 2; stroke: rgb(254, 251, 251);"/></g></g></g></g></svg>