<svg xmlns:xlink="http://www.w3.org/1999/xlink" width="26" xmlns="http://www.w3.org/2000/svg" height="26" id="screenshot-eba46612-bd99-80f6-8002-e4085e57ab35" viewBox="-1 -1 26 26" style="-webkit-print-color-adjust: exact;" fill="none" version="1.1"><g id="shape-eba46612-bd99-80f6-8002-e4085e57ab35" width="24" class="feather feather-more-vertical" height="24" rx="0" ry="0" style="fill: rgb(0, 0, 0);"><g id="shape-eba46612-bd99-80f6-8002-e4085e589bd4"><g class="fills" id="fills-eba46612-bd99-80f6-8002-e4085e589bd4"><ellipse cy="12" stroke-linejoin="round" transform="matrix(1.000000, 0.000000, 0.000000, 1.000000, 0.000000, 0.000000)" style="fill: none;" ry="1" fill="none" stroke-linecap="round" rx="1" cx="12"/></g><g id="strokes-eba46612-bd99-80f6-8002-e4085e589bd4" class="strokes"><g class="stroke-shape"><ellipse stroke-linecap="round" stroke-linejoin="round" rx="1" ry="1" cx="12" cy="12" transform="matrix(1.000000, 0.000000, 0.000000, 1.000000, 0.000000, 0.000000)" style="fill: none; stroke-width: 2; stroke: rgb(64, 251, 180);"/></g></g></g><g id="shape-eba46612-bd99-80f6-8002-e4085e589bd5"><g class="fills" id="fills-eba46612-bd99-80f6-8002-e4085e589bd5"><ellipse cy="5" stroke-linejoin="round" transform="matrix(1.000000, 0.000000, 0.000000, 1.000000, 0.000000, 0.000000)" style="fill: none;" ry="1" fill="none" stroke-linecap="round" rx="1" cx="12"/></g><g id="strokes-eba46612-bd99-80f6-8002-e4085e589bd5" class="strokes"><g class="stroke-shape"><ellipse stroke-linecap="round" stroke-linejoin="round" rx="1" ry="1" cx="12" cy="5" transform="matrix(1.000000, 0.000000, 0.000000, 1.000000, 0.000000, 0.000000)" style="fill: none; stroke-width: 2; stroke: rgb(64, 251, 180);"/></g></g></g><g id="shape-eba46612-bd99-80f6-8002-e4085e58ec02"><g class="fills" id="fills-eba46612-bd99-80f6-8002-e4085e58ec02"><ellipse cy="19" stroke-linejoin="round" transform="matrix(1.000000, 0.000000, 0.000000, 1.000000, 0.000000, 0.000000)" style="fill: none;" ry="1" fill="none" stroke-linecap="round" rx="1" cx="12"/></g><g id="strokes-eba46612-bd99-80f6-8002-e4085e58ec02" class="strokes"><g class="stroke-shape"><ellipse stroke-linecap="round" stroke-linejoin="round" rx="1" ry="1" cx="12" cy="19" transform="matrix(1.000000, 0.000000, 0.000000, 1.000000, 0.000000, 0.000000)" style="fill: none; stroke-width: 2; stroke: rgb(64, 251, 180);"/></g></g></g></g></svg>