<svg xmlns:xlink="http://www.w3.org/1999/xlink" width="26" xmlns="http://www.w3.org/2000/svg" height="26" id="screenshot-eba46612-bd99-80f6-8002-e307fc293581" viewBox="-1 -1 26 26" style="-webkit-print-color-adjust: exact;" fill="none" version="1.1"><g id="shape-eba46612-bd99-80f6-8002-e307fc293581" width="24" class="feather feather-home" height="24" rx="0" ry="0" style="fill: rgb(0, 0, 0);"><g id="shape-eba46612-bd99-80f6-8002-e307fc293583"><g class="fills" id="fills-eba46612-bd99-80f6-8002-e307fc293583"><path fill="none" stroke-linecap="round" stroke-linejoin="round" rx="0" ry="0" d="M3.000,9.000L12.000,2.000L21.000,9.000L21.000,20.000C21.000,21.105,20.105,22.000,19.000,22.000L5.000,22.000C3.895,22.000,3.000,21.105,3.000,20.000Z" style="fill: none;"/></g><g id="strokes-eba46612-bd99-80f6-8002-e307fc293583" class="strokes"><g class="stroke-shape"><path stroke-linecap="round" stroke-linejoin="round" rx="0" ry="0" d="M3.000,9.000L12.000,2.000L21.000,9.000L21.000,20.000C21.000,21.105,20.105,22.000,19.000,22.000L5.000,22.000C3.895,22.000,3.000,21.105,3.000,20.000Z" style="fill: none; stroke-width: 2; stroke: rgb(254, 251, 251); stroke-opacity: 1;"/></g></g></g><g id="shape-eba46612-bd99-80f6-8002-e307fc293584"><g class="fills" id="fills-eba46612-bd99-80f6-8002-e307fc293584"><path fill="none" stroke-linecap="round" stroke-linejoin="round" rx="0" ry="0" d="M9.000,22.000L9.000,12.000L15.000,12.000L15.000,22.000" style="fill: none;"/></g><g id="strokes-eba46612-bd99-80f6-8002-e307fc293584" class="strokes"><g class="stroke-shape"><path stroke-linecap="round" stroke-linejoin="round" rx="0" ry="0" d="M9.000,22.000L9.000,12.000L15.000,12.000L15.000,22.000" style="fill: none; stroke-width: 2; stroke: rgb(254, 251, 251); stroke-opacity: 1;"/></g></g></g></g></svg>