<svg xmlns:xlink="http://www.w3.org/1999/xlink" width="32" xmlns="http://www.w3.org/2000/svg" height="32" id="screenshot-b0e88f46-7b77-80b1-8002-b35bf3aefa65" viewBox="-1 -1 32 32" style="-webkit-print-color-adjust: exact;" fill="none" version="1.1"><g id="shape-b0e88f46-7b77-80b1-8002-b35bf3aefa65" width="24" class="feather feather-mail" height="24" rx="0" ry="0" style="fill: rgb(0, 0, 0);"><g id="shape-b0e88f46-7b77-80b1-8002-b35bf3aefa6c"><g class="fills" id="fills-b0e88f46-7b77-80b1-8002-b35bf3aefa6c"><path fill="none" stroke-linecap="round" stroke-linejoin="round" rx="0" ry="0" d="M5.000,5.000L25.000,5.000C26.375,5.000,27.500,6.125,27.500,7.500L27.500,22.500C27.500,23.875,26.375,25.000,25.000,25.000L5.000,25.000C3.625,25.000,2.500,23.875,2.500,22.500L2.500,7.500C2.500,6.125,3.625,5.000,5.000,5.000ZZ" style="fill: none;"/></g><g id="strokes-b0e88f46-7b77-80b1-8002-b35bf3aefa6c" class="strokes"><g class="stroke-shape"><path stroke-linecap="round" stroke-linejoin="round" rx="0" ry="0" d="M5.000,5.000L25.000,5.000C26.375,5.000,27.500,6.125,27.500,7.500L27.500,22.500C27.500,23.875,26.375,25.000,25.000,25.000L5.000,25.000C3.625,25.000,2.500,23.875,2.500,22.500L2.500,7.500C2.500,6.125,3.625,5.000,5.000,5.000ZZ" style="fill: none; stroke-width: 2; stroke: rgb(213, 122, 18);"/></g></g></g><g id="shape-b0e88f46-7b77-80b1-8002-b35bf3aefa6d"><g class="fills" id="fills-b0e88f46-7b77-80b1-8002-b35bf3aefa6d"><path fill="none" stroke-linecap="round" stroke-linejoin="round" rx="0" ry="0" d="M27.500,7.500L15.000,16.250L2.500,7.500" style="fill: none;"/></g><g id="strokes-b0e88f46-7b77-80b1-8002-b35bf3aefa6d" class="strokes"><g class="stroke-shape"><path stroke-linecap="round" stroke-linejoin="round" rx="0" ry="0" d="M27.500,7.500L15.000,16.250L2.500,7.500" style="fill: none; stroke-width: 2; stroke: rgb(213, 122, 18);"/></g></g></g></g></svg>