<svg xmlns:xlink="http://www.w3.org/1999/xlink" width="32" xmlns="http://www.w3.org/2000/svg" height="31.834" id="screenshot-b0e88f46-7b77-80b1-8002-b35bf3aefa64" viewBox="-1 -1 32 31.834" style="-webkit-print-color-adjust: exact;" fill="none" version="1.1"><g id="shape-b0e88f46-7b77-80b1-8002-b35bf3aefa64" width="24" class="feather feather-linkedin" height="24" rx="0" ry="0" style="fill: rgb(0, 0, 0);"><g id="shape-b0e88f46-7b77-80b1-8002-b35bf3aefa68"><g class="fills" id="fills-b0e88f46-7b77-80b1-8002-b35bf3aefa68"><path fill="none" stroke-linecap="round" stroke-linejoin="round" rx="0" ry="0" d="M20.000,9.945C24.142,9.945,27.500,13.284,27.500,17.403L27.500,26.105L22.500,26.105L22.500,17.403C22.500,16.030,21.381,14.917,20.000,14.917C18.619,14.917,17.500,16.030,17.500,17.403L17.500,26.105L12.500,26.105L12.500,17.403C12.500,13.284,15.858,9.945,20.000,9.945ZZ" style="fill: none;"/></g><g id="strokes-b0e88f46-7b77-80b1-8002-b35bf3aefa68" class="strokes"><g class="stroke-shape"><path stroke-linecap="round" stroke-linejoin="round" rx="0" ry="0" d="M20.000,9.945C24.142,9.945,27.500,13.284,27.500,17.403L27.500,26.105L22.500,26.105L22.500,17.403C22.500,16.030,21.381,14.917,20.000,14.917C18.619,14.917,17.500,16.030,17.500,17.403L17.500,26.105L12.500,26.105L12.500,17.403C12.500,13.284,15.858,9.945,20.000,9.945ZZ" style="fill: none; stroke-width: 2; stroke: rgb(251, 146, 60);"/></g></g></g><g id="shape-b0e88f46-7b77-80b1-8002-b35bf3aefa69"><g class="fills" id="fills-b0e88f46-7b77-80b1-8002-b35bf3aefa69"><rect width="5" height="14.917127071823074" x="2.5" stroke-linejoin="round" transform="matrix(1.000000, 0.000000, 0.000000, 1.000000, 0.000000, 0.000000)" style="fill: none;" ry="0" fill="none" stroke-linecap="round" rx="0" y="11.187845303867448"/></g><g id="strokes-b0e88f46-7b77-80b1-8002-b35bf3aefa69" class="strokes"><g class="stroke-shape"><rect width="5" height="14.917127071823074" x="2.5" stroke-linejoin="round" transform="matrix(1.000000, 0.000000, 0.000000, 1.000000, 0.000000, 0.000000)" style="fill: none; stroke-width: 2; stroke: rgb(251, 146, 60);" ry="0" stroke-linecap="round" rx="0" y="11.187845303867448"/></g></g></g><g id="shape-b0e88f46-7b77-80b1-8002-b35bf3aefa6a"><g class="fills" id="fills-b0e88f46-7b77-80b1-8002-b35bf3aefa6a"><ellipse cy="4.972375690607635" stroke-linejoin="round" transform="matrix(1.000000, 0.000000, 0.000000, 1.000000, 0.000000, 0.000000)" style="fill: none;" ry="2.4861878453038457" fill="none" stroke-linecap="round" rx="2.5" cx="5"/></g><g id="strokes-b0e88f46-7b77-80b1-8002-b35bf3aefa6a" class="strokes"><g class="stroke-shape"><ellipse stroke-linecap="round" stroke-linejoin="round" rx="2.5" ry="2.4861878453038457" cx="5" cy="4.972375690607635" transform="matrix(1.000000, 0.000000, 0.000000, 1.000000, 0.000000, 0.000000)" style="fill: none; stroke-width: 2; stroke: rgb(251, 146, 60);"/></g></g></g></g></svg>