<svg xmlns:xlink="http://www.w3.org/1999/xlink" width="28" xmlns="http://www.w3.org/2000/svg" height="28" id="screenshot-b9718a48-fce5-8035-8003-12ccacaeca36" viewBox="-1 -1 28 28" style="-webkit-print-color-adjust: exact;" fill="none" version="1.1"><g id="shape-b9718a48-fce5-8035-8003-12ccacaeca36" width="24" class="feather feather-external-link" height="24" rx="0" ry="0" style="fill: rgb(0, 0, 0);"><g id="shape-b9718a48-fce5-8035-8003-12ccacb15eff"><g class="fills" id="fills-b9718a48-fce5-8035-8003-12ccacb15eff"><path fill="none" stroke-linecap="round" stroke-linejoin="round" rx="0" ry="0" d="M19.500,14.083L19.500,20.583C19.500,21.780,18.530,22.750,17.333,22.750L5.417,22.750C4.220,22.750,3.250,21.780,3.250,20.583L3.250,8.667C3.250,7.470,4.220,6.500,5.417,6.500L11.917,6.500" style="fill: none;"/></g><g id="strokes-b9718a48-fce5-8035-8003-12ccacb15eff" class="strokes"><g class="stroke-shape"><path stroke-linecap="round" stroke-linejoin="round" rx="0" ry="0" d="M19.500,14.083L19.500,20.583C19.500,21.780,18.530,22.750,17.333,22.750L5.417,22.750C4.220,22.750,3.250,21.780,3.250,20.583L3.250,8.667C3.250,7.470,4.220,6.500,5.417,6.500L11.917,6.500" style="fill: none; stroke-width: 2; stroke: rgb(64, 251, 180); stroke-opacity: 1;"/></g></g></g><g id="shape-b9718a48-fce5-8035-8003-12ccacb19e6d"><g class="fills" id="fills-b9718a48-fce5-8035-8003-12ccacb19e6d"><path fill="none" stroke-linecap="round" stroke-linejoin="round" rx="0" ry="0" d="M16.250,3.250L22.750,3.250L22.750,9.750" style="fill: none;"/></g><g id="strokes-b9718a48-fce5-8035-8003-12ccacb19e6d" class="strokes"><g class="stroke-shape"><path stroke-linecap="round" stroke-linejoin="round" rx="0" ry="0" d="M16.250,3.250L22.750,3.250L22.750,9.750" style="fill: none; stroke-width: 2; stroke: rgb(64, 251, 180); stroke-opacity: 1;"/></g></g></g><g id="shape-b9718a48-fce5-8035-8003-12ccacb1c879"><g class="fills" id="fills-b9718a48-fce5-8035-8003-12ccacb1c879"><path fill="none" stroke-linejoin="round" stroke-linecap="round" rx="0" ry="0" d="M10.833,15.167L22.750,3.250" style="fill: none;"/></g><g id="strokes-b9718a48-fce5-8035-8003-12ccacb1c879" class="strokes"><g class="stroke-shape"><path stroke-linejoin="round" stroke-linecap="round" rx="0" ry="0" d="M10.833,15.167L22.750,3.250" style="fill: none; stroke-width: 2; stroke: rgb(64, 251, 180); stroke-opacity: 1;"/></g></g></g></g></svg>