<svg xmlns:xlink="http://www.w3.org/1999/xlink" width="32" xmlns="http://www.w3.org/2000/svg" height="32" id="screenshot-b0e88f46-7b77-80b1-8002-b35bf3aefa66" viewBox="-1 -1 32 32" style="-webkit-print-color-adjust: exact;" fill="none" version="1.1"><g id="shape-b0e88f46-7b77-80b1-8002-b35bf3aefa66" width="24" class="feather feather-github" height="24" rx="0" ry="0" style="fill: rgb(0, 0, 0);"><g id="shape-b0e88f46-7b77-80b1-8002-b35bf3aefa6f"><g class="fills" id="fills-b0e88f46-7b77-80b1-8002-b35bf3aefa6f"><path fill="none" stroke-linecap="round" stroke-linejoin="round" rx="0" ry="0" d="M11.250,23.750C5.000,25.625,5.000,20.625,2.500,20.000M20.000,27.500L20.000,22.662C20.095,21.457,19.667,20.268,18.825,19.400C22.750,18.962,26.875,17.475,26.875,10.650C26.875,8.905,26.203,7.226,25.000,5.963C25.570,4.436,25.530,2.748,24.888,1.250C24.888,1.250,23.413,0.813,20.000,3.100C17.135,2.324,14.115,2.324,11.250,3.100C7.838,0.813,6.363,1.250,6.363,1.250C5.720,2.748,5.680,4.436,6.250,5.962C5.038,7.236,4.366,8.929,4.375,10.687C4.375,17.462,8.500,18.950,12.425,19.437C11.593,20.297,11.166,21.469,11.250,22.662L11.250,27.500" style="fill: none;"/></g><g id="strokes-b0e88f46-7b77-80b1-8002-b35bf3aefa6f" class="strokes"><g class="stroke-shape"><path stroke-linecap="round" stroke-linejoin="round" rx="0" ry="0" d="M11.250,23.750C5.000,25.625,5.000,20.625,2.500,20.000M20.000,27.500L20.000,22.662C20.095,21.457,19.667,20.268,18.825,19.400C22.750,18.962,26.875,17.475,26.875,10.650C26.875,8.905,26.203,7.226,25.000,5.963C25.570,4.436,25.530,2.748,24.888,1.250C24.888,1.250,23.413,0.813,20.000,3.100C17.135,2.324,14.115,2.324,11.250,3.100C7.838,0.813,6.363,1.250,6.363,1.250C5.720,2.748,5.680,4.436,6.250,5.962C5.038,7.236,4.366,8.929,4.375,10.687C4.375,17.462,8.500,18.950,12.425,19.437C11.593,20.297,11.166,21.469,11.250,22.662L11.250,27.500" style="fill: none; stroke-width: 2; stroke: rgb(213, 122, 18);"/></g></g></g></g></svg>