<svg xmlns:xlink="http://www.w3.org/1999/xlink" width="22.313" xmlns="http://www.w3.org/2000/svg" height="23.903" id="screenshot-2456870b-26a9-80a1-8002-c7ef4c7a0d79" viewBox="1999.083 736.014 22.313 23.903" style="-webkit-print-color-adjust: exact;" fill="none" version="1.1"><g id="shape-2456870b-26a9-80a1-8002-c7ef4c7a0d79"><g class="fills" id="fills-2456870b-26a9-80a1-8002-c7ef4c7a0d79"><path fill="none" stroke-linecap="round" stroke-linejoin="round" rx="0" ry="0" d="M2007.375,755.792C2002.167,757.354,2002.167,753.188,2000.083,752.667M2014.667,758.917L2014.667,754.885C2014.746,753.881,2014.389,752.890,2013.688,752.167C2016.958,751.802,2020.396,750.563,2020.396,744.875C2020.396,743.421,2019.836,742.022,2018.833,740.969C2019.308,739.696,2019.275,738.290,2018.740,737.042C2018.740,737.042,2017.510,736.677,2014.667,738.583C2012.279,737.936,2009.762,737.936,2007.375,738.583C2004.531,736.677,2003.302,737.042,2003.302,737.042C2002.767,738.290,2002.733,739.696,2003.208,740.969C2002.198,742.030,2001.638,743.441,2001.646,744.906C2001.646,750.552,2005.083,751.792,2008.354,752.198C2007.661,752.914,2007.305,753.891,2007.375,754.885L2007.375,758.917" style="fill: none;"/></g><g id="strokes-2456870b-26a9-80a1-8002-c7ef4c7a0d79" class="strokes"><g class="stroke-shape"><path stroke-linecap="round" stroke-linejoin="round" rx="0" ry="0" d="M2007.375,755.792C2002.167,757.354,2002.167,753.188,2000.083,752.667M2014.667,758.917L2014.667,754.885C2014.746,753.881,2014.389,752.890,2013.688,752.167C2016.958,751.802,2020.396,750.563,2020.396,744.875C2020.396,743.421,2019.836,742.022,2018.833,740.969C2019.308,739.696,2019.275,738.290,2018.740,737.042C2018.740,737.042,2017.510,736.677,2014.667,738.583C2012.279,737.936,2009.762,737.936,2007.375,738.583C2004.531,736.677,2003.302,737.042,2003.302,737.042C2002.767,738.290,2002.733,739.696,2003.208,740.969C2002.198,742.030,2001.638,743.441,2001.646,744.906C2001.646,750.552,2005.083,751.792,2008.354,752.198C2007.661,752.914,2007.305,753.891,2007.375,754.885L2007.375,758.917" style="fill: none; stroke-width: 2; stroke: rgb(255, 252, 247);"/></g></g></g></svg>