<svg xmlns:xlink="http://www.w3.org/1999/xlink" width="27" xmlns="http://www.w3.org/2000/svg" height="27" id="screenshot-2456870b-26a9-80a1-8002-c7ef4c7a0d73" viewBox="-1 -1 27 27" style="-webkit-print-color-adjust: exact;" fill="none" version="1.1"><g id="shape-2456870b-26a9-80a1-8002-c7ef4c7a0d73" width="24" class="feather feather-mail" height="24" rx="0" ry="0" style="fill: rgb(0, 0, 0);"><g id="shape-2456870b-26a9-80a1-8002-c7ef4c7a0d75"><g class="fills" id="fills-2456870b-26a9-80a1-8002-c7ef4c7a0d75"><path fill="none" stroke-linecap="round" stroke-linejoin="round" rx="0" ry="0" d="M4.167,4.167L20.833,4.167C21.979,4.167,22.917,5.104,22.917,6.250L22.917,18.750C22.917,19.896,21.979,20.833,20.833,20.833L4.167,20.833C3.021,20.833,2.083,19.896,2.083,18.750L2.083,6.250C2.083,5.104,3.021,4.167,4.167,4.167ZZ" style="fill: none;"/></g><g id="strokes-2456870b-26a9-80a1-8002-c7ef4c7a0d75" class="strokes"><g class="stroke-shape"><path stroke-linecap="round" stroke-linejoin="round" rx="0" ry="0" d="M4.167,4.167L20.833,4.167C21.979,4.167,22.917,5.104,22.917,6.250L22.917,18.750C22.917,19.896,21.979,20.833,20.833,20.833L4.167,20.833C3.021,20.833,2.083,19.896,2.083,18.750L2.083,6.250C2.083,5.104,3.021,4.167,4.167,4.167ZZ" style="fill: none; stroke-width: 2; stroke: rgb(255, 252, 247);"/></g></g></g><g id="shape-2456870b-26a9-80a1-8002-c7ef4c7a0d76"><g class="fills" id="fills-2456870b-26a9-80a1-8002-c7ef4c7a0d76"><path fill="none" stroke-linecap="round" stroke-linejoin="round" rx="0" ry="0" d="M22.917,6.250L12.500,13.542L2.083,6.250" style="fill: none;"/></g><g id="strokes-2456870b-26a9-80a1-8002-c7ef4c7a0d76" class="strokes"><g class="stroke-shape"><path stroke-linecap="round" stroke-linejoin="round" rx="0" ry="0" d="M22.917,6.250L12.500,13.542L2.083,6.250" style="fill: none; stroke-width: 2; stroke: rgb(255, 252, 247);"/></g></g></g></g></svg>