<svg xmlns:xlink="http://www.w3.org/1999/xlink" width="26" xmlns="http://www.w3.org/2000/svg" height="26" id="screenshot-3870b671-31be-8087-8002-d0db77e9e20c" viewBox="-1 -1 26 26" style="-webkit-print-color-adjust: exact;" fill="none" version="1.1"><g id="shape-3870b671-31be-8087-8002-d0db77e9e20c" width="24" class="feather feather-linkedin" height="24" rx="0" ry="0" style="fill: rgb(0, 0, 0);"><g id="shape-3870b671-31be-8087-8002-d0db77e9e218"><g class="fills" id="fills-3870b671-31be-8087-8002-d0db77e9e218"><path fill="none" stroke-linecap="round" stroke-linejoin="round" rx="0" ry="0" d="M16.000,8.000C19.314,8.000,22.000,10.686,22.000,14.000L22.000,21.000L18.000,21.000L18.000,14.000C18.000,12.895,17.105,12.000,16.000,12.000C14.895,12.000,14.000,12.895,14.000,14.000L14.000,21.000L10.000,21.000L10.000,14.000C10.000,10.686,12.686,8.000,16.000,8.000ZZ" style="fill: none;"/></g><g id="strokes-3870b671-31be-8087-8002-d0db77e9e218" class="strokes"><g class="stroke-shape"><path stroke-linecap="round" stroke-linejoin="round" rx="0" ry="0" d="M16.000,8.000C19.314,8.000,22.000,10.686,22.000,14.000L22.000,21.000L18.000,21.000L18.000,14.000C18.000,12.895,17.105,12.000,16.000,12.000C14.895,12.000,14.000,12.895,14.000,14.000L14.000,21.000L10.000,21.000L10.000,14.000C10.000,10.686,12.686,8.000,16.000,8.000ZZ" style="fill: none; stroke-width: 2; stroke: rgb(254, 251, 251);"/></g></g></g><g id="shape-3870b671-31be-8087-8002-d0db77e9e219"><g class="fills" id="fills-3870b671-31be-8087-8002-d0db77e9e219"><rect width="4.000000000001364" height="12" x="1.999999999998181" stroke-linejoin="round" transform="matrix(1.000000, 0.000000, 0.000000, 1.000000, 0.000000, 0.000000)" style="fill: none;" ry="0" fill="none" stroke-linecap="round" rx="0" y="9"/></g><g id="strokes-3870b671-31be-8087-8002-d0db77e9e219" class="strokes"><g class="stroke-shape"><rect width="4.000000000001364" height="12" x="1.999999999998181" stroke-linejoin="round" transform="matrix(1.000000, 0.000000, 0.000000, 1.000000, 0.000000, 0.000000)" style="fill: none; stroke-width: 2; stroke: rgb(254, 251, 251);" ry="0" stroke-linecap="round" rx="0" y="9"/></g></g></g><g id="shape-3870b671-31be-8087-8002-d0db77e9e21a"><g class="fills" id="fills-3870b671-31be-8087-8002-d0db77e9e21a"><ellipse cy="4.000000000000028" stroke-linejoin="round" transform="matrix(1.000000, 0.000000, 0.000000, 1.000000, 0.000000, 0.000000)" style="fill: none;" ry="2.0000000000000284" fill="none" stroke-linecap="round" rx="2.000000000000682" cx="3.999999999998863"/></g><g id="strokes-3870b671-31be-8087-8002-d0db77e9e21a" class="strokes"><g class="stroke-shape"><ellipse stroke-linecap="round" stroke-linejoin="round" rx="2.000000000000682" ry="2.0000000000000284" cx="3.999999999998863" cy="4.000000000000028" transform="matrix(1.000000, 0.000000, 0.000000, 1.000000, 0.000000, 0.000000)" style="fill: none; stroke-width: 2; stroke: rgb(254, 251, 251);"/></g></g></g></g></svg>