<svg xmlns:xlink="http://www.w3.org/1999/xlink" width="32" xmlns="http://www.w3.org/2000/svg" height="31.834" id="screenshot-b0e88f46-7b77-80b1-8002-b35bf3aefa66" viewBox="-1 -1 32 31.834" style="-webkit-print-color-adjust: exact;" fill="none" version="1.1"><g id="shape-b0e88f46-7b77-80b1-8002-b35bf3aefa66" width="24" class="feather feather-github" height="24" rx="0" ry="0" style="fill: rgb(0, 0, 0);"><g id="shape-b0e88f46-7b77-80b1-8002-b35bf3aefa6f"><g class="fills" id="fills-b0e88f46-7b77-80b1-8002-b35bf3aefa6f"><path fill="none" stroke-linecap="round" stroke-linejoin="round" rx="0" ry="0" d="M11.250,23.619C5.000,25.483,5.000,20.511,2.500,19.890M20.000,27.348L20.000,22.537C20.095,21.338,19.667,20.156,18.825,19.293C22.750,18.858,26.875,17.378,26.875,10.591C26.875,8.856,26.203,7.187,25.000,5.930C25.570,4.411,25.530,2.733,24.888,1.243C24.888,1.243,23.413,0.808,20.000,3.083C17.135,2.311,14.115,2.311,11.250,3.083C7.838,0.808,6.363,1.243,6.363,1.243C5.720,2.733,5.680,4.411,6.250,5.930C5.038,7.196,4.366,8.880,4.375,10.628C4.375,17.366,8.500,18.845,12.425,19.330C11.593,20.185,11.166,21.351,11.250,22.537L11.250,27.348" style="fill: none;"/></g><g id="strokes-b0e88f46-7b77-80b1-8002-b35bf3aefa6f" class="strokes"><g class="stroke-shape"><path stroke-linecap="round" stroke-linejoin="round" rx="0" ry="0" d="M11.250,23.619C5.000,25.483,5.000,20.511,2.500,19.890M20.000,27.348L20.000,22.537C20.095,21.338,19.667,20.156,18.825,19.293C22.750,18.858,26.875,17.378,26.875,10.591C26.875,8.856,26.203,7.187,25.000,5.930C25.570,4.411,25.530,2.733,24.888,1.243C24.888,1.243,23.413,0.808,20.000,3.083C17.135,2.311,14.115,2.311,11.250,3.083C7.838,0.808,6.363,1.243,6.363,1.243C5.720,2.733,5.680,4.411,6.250,5.930C5.038,7.196,4.366,8.880,4.375,10.628C4.375,17.366,8.500,18.845,12.425,19.330C11.593,20.185,11.166,21.351,11.250,22.537L11.250,27.348" style="fill: none; stroke-width: 2; stroke: rgb(251, 146, 60);"/></g></g></g></g></svg>