<svg xmlns:xlink="http://www.w3.org/1999/xlink" width="26" xmlns="http://www.w3.org/2000/svg" height="26" id="screenshot-3870b671-31be-8087-8002-d0db77e9e20d" viewBox="-1 -1 26 26" style="-webkit-print-color-adjust: exact;" fill="none" version="1.1"><g id="shape-3870b671-31be-8087-8002-d0db77e9e20d" width="24" class="feather feather-mail" height="24" rx="0" ry="0" style="fill: rgb(0, 0, 0);"><g id="shape-3870b671-31be-8087-8002-d0db77e9e21c"><g class="fills" id="fills-3870b671-31be-8087-8002-d0db77e9e21c"><path fill="none" stroke-linecap="round" stroke-linejoin="round" rx="0" ry="0" d="M4.000,4.000L20.000,4.000C21.100,4.000,22.000,4.900,22.000,6.000L22.000,18.000C22.000,19.100,21.100,20.000,20.000,20.000L4.000,20.000C2.900,20.000,2.000,19.100,2.000,18.000L2.000,6.000C2.000,4.900,2.900,4.000,4.000,4.000ZZ" style="fill: none;"/></g><g id="strokes-3870b671-31be-8087-8002-d0db77e9e21c" class="strokes"><g class="stroke-shape"><path stroke-linecap="round" stroke-linejoin="round" rx="0" ry="0" d="M4.000,4.000L20.000,4.000C21.100,4.000,22.000,4.900,22.000,6.000L22.000,18.000C22.000,19.100,21.100,20.000,20.000,20.000L4.000,20.000C2.900,20.000,2.000,19.100,2.000,18.000L2.000,6.000C2.000,4.900,2.900,4.000,4.000,4.000ZZ" style="fill: none; stroke-width: 2; stroke: rgb(254, 251, 251);"/></g></g></g><g id="shape-3870b671-31be-8087-8002-d0db77e9e21d"><g class="fills" id="fills-3870b671-31be-8087-8002-d0db77e9e21d"><path fill="none" stroke-linecap="round" stroke-linejoin="round" rx="0" ry="0" d="M22.000,6.000L12.000,13.000L2.000,6.000" style="fill: none;"/></g><g id="strokes-3870b671-31be-8087-8002-d0db77e9e21d" class="strokes"><g class="stroke-shape"><path stroke-linecap="round" stroke-linejoin="round" rx="0" ry="0" d="M22.000,6.000L12.000,13.000L2.000,6.000" style="fill: none; stroke-width: 2; stroke: rgb(254, 251, 251);"/></g></g></g></g></svg>