<svg xmlns:xlink="http://www.w3.org/1999/xlink" width="32" xmlns="http://www.w3.org/2000/svg" height="31.834" id="screenshot-b0e88f46-7b77-80b1-8002-b35bf3aefa65" viewBox="-1 -1 32 31.834" style="-webkit-print-color-adjust: exact;" fill="none" version="1.1"><g id="shape-b0e88f46-7b77-80b1-8002-b35bf3aefa65" width="24" class="feather feather-mail" height="24" rx="0" ry="0" style="fill: rgb(0, 0, 0);"><g id="shape-b0e88f46-7b77-80b1-8002-b35bf3aefa6c"><g class="fills" id="fills-b0e88f46-7b77-80b1-8002-b35bf3aefa6c"><path fill="none" stroke-linecap="round" stroke-linejoin="round" rx="0" ry="0" d="M5.000,4.972L25.000,4.972C26.375,4.972,27.500,6.091,27.500,7.459L27.500,22.376C27.500,23.743,26.375,24.862,25.000,24.862L5.000,24.862C3.625,24.862,2.500,23.743,2.500,22.376L2.500,7.459C2.500,6.091,3.625,4.972,5.000,4.972ZZ" style="fill: none;"/></g><g id="strokes-b0e88f46-7b77-80b1-8002-b35bf3aefa6c" class="strokes"><g class="stroke-shape"><path stroke-linecap="round" stroke-linejoin="round" rx="0" ry="0" d="M5.000,4.972L25.000,4.972C26.375,4.972,27.500,6.091,27.500,7.459L27.500,22.376C27.500,23.743,26.375,24.862,25.000,24.862L5.000,24.862C3.625,24.862,2.500,23.743,2.500,22.376L2.500,7.459C2.500,6.091,3.625,4.972,5.000,4.972ZZ" style="fill: none; stroke-width: 2; stroke: rgb(251, 146, 60);"/></g></g></g><g id="shape-b0e88f46-7b77-80b1-8002-b35bf3aefa6d"><g class="fills" id="fills-b0e88f46-7b77-80b1-8002-b35bf3aefa6d"><path fill="none" stroke-linecap="round" stroke-linejoin="round" rx="0" ry="0" d="M27.500,7.459L15.000,16.160L2.500,7.459" style="fill: none;"/></g><g id="strokes-b0e88f46-7b77-80b1-8002-b35bf3aefa6d" class="strokes"><g class="stroke-shape"><path stroke-linecap="round" stroke-linejoin="round" rx="0" ry="0" d="M27.500,7.459L15.000,16.160L2.500,7.459" style="fill: none; stroke-width: 2; stroke: rgb(251, 146, 60);"/></g></g></g></g></svg>