<svg xmlns:xlink="http://www.w3.org/1999/xlink" width="32" xmlns="http://www.w3.org/2000/svg" height="32" id="screenshot-b0e88f46-7b77-80b1-8002-b35bf3aefa64" viewBox="-1 -1 32 32" style="-webkit-print-color-adjust: exact;" fill="none" version="1.1"><g id="shape-b0e88f46-7b77-80b1-8002-b35bf3aefa64" width="24" class="feather feather-linkedin" height="24" rx="0" ry="0" style="fill: rgb(0, 0, 0);"><g id="shape-b0e88f46-7b77-80b1-8002-b35bf3aefa68"><g class="fills" id="fills-b0e88f46-7b77-80b1-8002-b35bf3aefa68"><path fill="none" stroke-linecap="round" stroke-linejoin="round" rx="0" ry="0" d="M20.000,10.000C24.142,10.000,27.500,13.358,27.500,17.500L27.500,26.250L22.500,26.250L22.500,17.500C22.500,16.119,21.381,15.000,20.000,15.000C18.619,15.000,17.500,16.119,17.500,17.500L17.500,26.250L12.500,26.250L12.500,17.500C12.500,13.358,15.858,10.000,20.000,10.000ZZ" style="fill: none;"/></g><g id="strokes-b0e88f46-7b77-80b1-8002-b35bf3aefa68" class="strokes"><g class="stroke-shape"><path stroke-linecap="round" stroke-linejoin="round" rx="0" ry="0" d="M20.000,10.000C24.142,10.000,27.500,13.358,27.500,17.500L27.500,26.250L22.500,26.250L22.500,17.500C22.500,16.119,21.381,15.000,20.000,15.000C18.619,15.000,17.500,16.119,17.500,17.500L17.500,26.250L12.500,26.250L12.500,17.500C12.500,13.358,15.858,10.000,20.000,10.000ZZ" style="fill: none; stroke-width: 2; stroke: rgb(213, 122, 18);"/></g></g></g><g id="shape-b0e88f46-7b77-80b1-8002-b35bf3aefa69"><g class="fills" id="fills-b0e88f46-7b77-80b1-8002-b35bf3aefa69"><rect width="5" height="14.999999999999886" x="2.5" stroke-linejoin="round" transform="matrix(1.000000, 0.000000, 0.000000, 1.000000, 0.000000, 0.000000)" style="fill: none;" ry="0" fill="none" stroke-linecap="round" rx="0" y="11.250000000000114"/></g><g id="strokes-b0e88f46-7b77-80b1-8002-b35bf3aefa69" class="strokes"><g class="stroke-shape"><rect width="5" height="14.999999999999886" x="2.5" stroke-linejoin="round" transform="matrix(1.000000, 0.000000, 0.000000, 1.000000, 0.000000, 0.000000)" style="fill: none; stroke-width: 2; stroke: rgb(213, 122, 18);" ry="0" stroke-linecap="round" rx="0" y="11.250000000000114"/></g></g></g><g id="shape-b0e88f46-7b77-80b1-8002-b35bf3aefa6a"><g class="fills" id="fills-b0e88f46-7b77-80b1-8002-b35bf3aefa6a"><ellipse cy="5.000000000000057" stroke-linejoin="round" transform="matrix(1.000000, 0.000000, 0.000000, 1.000000, 0.000000, 0.000000)" style="fill: none;" ry="2.499999999999943" fill="none" stroke-linecap="round" rx="2.5" cx="5"/></g><g id="strokes-b0e88f46-7b77-80b1-8002-b35bf3aefa6a" class="strokes"><g class="stroke-shape"><ellipse stroke-linecap="round" stroke-linejoin="round" rx="2.5" ry="2.499999999999943" cx="5" cy="5.000000000000057" transform="matrix(1.000000, 0.000000, 0.000000, 1.000000, 0.000000, 0.000000)" style="fill: none; stroke-width: 2; stroke: rgb(213, 122, 18);"/></g></g></g></g></svg>