<svg xmlns:xlink="http://www.w3.org/1999/xlink" width="26" xmlns="http://www.w3.org/2000/svg" height="26" id="screenshot-3870b671-31be-8087-8002-d0db77e9e20b" viewBox="-1 -1 26 26" style="-webkit-print-color-adjust: exact;" fill="none" version="1.1"><g id="shape-3870b671-31be-8087-8002-d0db77e9e20b" width="24" class="feather feather-github" height="24" rx="0" ry="0" style="fill: rgb(0, 0, 0);"><g id="shape-3870b671-31be-8087-8002-d0db77e9e216"><g class="fills" id="fills-3870b671-31be-8087-8002-d0db77e9e216"><path fill="none" stroke-linecap="round" stroke-linejoin="round" rx="0" ry="0" d="M9.000,19.000C4.000,20.500,4.000,16.500,2.000,16.000M16.000,22.000L16.000,18.130C16.076,17.165,15.733,16.215,15.060,15.520C18.200,15.170,21.500,13.980,21.500,8.520C21.500,7.124,20.963,5.781,20.000,4.770C20.456,3.549,20.424,2.198,19.910,1.000C19.910,1.000,18.730,0.650,16.000,2.480C13.708,1.859,11.292,1.859,9.000,2.480C6.270,0.650,5.090,1.000,5.090,1.000C4.576,2.198,4.544,3.549,5.000,4.770C4.030,5.789,3.493,7.143,3.500,8.550C3.500,13.970,6.800,15.160,9.940,15.550C9.275,16.238,8.933,17.176,9.000,18.130L9.000,22.000" style="fill: none;"/></g><g id="strokes-3870b671-31be-8087-8002-d0db77e9e216" class="strokes"><g class="stroke-shape"><path stroke-linecap="round" stroke-linejoin="round" rx="0" ry="0" d="M9.000,19.000C4.000,20.500,4.000,16.500,2.000,16.000M16.000,22.000L16.000,18.130C16.076,17.165,15.733,16.215,15.060,15.520C18.200,15.170,21.500,13.980,21.500,8.520C21.500,7.124,20.963,5.781,20.000,4.770C20.456,3.549,20.424,2.198,19.910,1.000C19.910,1.000,18.730,0.650,16.000,2.480C13.708,1.859,11.292,1.859,9.000,2.480C6.270,0.650,5.090,1.000,5.090,1.000C4.576,2.198,4.544,3.549,5.000,4.770C4.030,5.789,3.493,7.143,3.500,8.550C3.500,13.970,6.800,15.160,9.940,15.550C9.275,16.238,8.933,17.176,9.000,18.130L9.000,22.000" style="fill: none; stroke-width: 2; stroke: rgb(254, 251, 251);"/></g></g></g></g></svg>