<svg xmlns:xlink="http://www.w3.org/1999/xlink" width="27" xmlns="http://www.w3.org/2000/svg" height="27" id="screenshot-2456870b-26a9-80a1-8002-c7ef4c7a0d6e" viewBox="-1 -1 27 27" style="-webkit-print-color-adjust: exact;" fill="none" version="1.1"><g id="shape-2456870b-26a9-80a1-8002-c7ef4c7a0d6e" width="24" class="feather feather-linkedin" height="24" rx="0" ry="0" style="fill: rgb(0, 0, 0);"><g id="shape-2456870b-26a9-80a1-8002-c7ef4c7a0d70"><g class="fills" id="fills-2456870b-26a9-80a1-8002-c7ef4c7a0d70"><path fill="none" stroke-linecap="round" stroke-linejoin="round" rx="0" ry="0" d="M16.667,8.333C20.118,8.333,22.917,11.132,22.917,14.583L22.917,21.875L18.750,21.875L18.750,14.583C18.750,13.433,17.817,12.500,16.667,12.500C15.516,12.500,14.583,13.433,14.583,14.583L14.583,21.875L10.417,21.875L10.417,14.583C10.417,11.132,13.215,8.333,16.667,8.333ZZ" style="fill: none;"/></g><g id="strokes-2456870b-26a9-80a1-8002-c7ef4c7a0d70" class="strokes"><g class="stroke-shape"><path stroke-linecap="round" stroke-linejoin="round" rx="0" ry="0" d="M16.667,8.333C20.118,8.333,22.917,11.132,22.917,14.583L22.917,21.875L18.750,21.875L18.750,14.583C18.750,13.433,17.817,12.500,16.667,12.500C15.516,12.500,14.583,13.433,14.583,14.583L14.583,21.875L10.417,21.875L10.417,14.583C10.417,11.132,13.215,8.333,16.667,8.333ZZ" style="fill: none; stroke-width: 2; stroke: rgb(255, 252, 247);"/></g></g></g><g id="shape-2456870b-26a9-80a1-8002-c7ef4c7a0d71"><g class="fills" id="fills-2456870b-26a9-80a1-8002-c7ef4c7a0d71"><rect width="4.16666666666697" height="12.5" x="2.08333333333303" stroke-linejoin="round" transform="matrix(1.000000, 0.000000, 0.000000, 1.000000, 0.000000, 0.000000)" style="fill: none;" ry="0" fill="none" stroke-linecap="round" rx="0" y="9.375"/></g><g id="strokes-2456870b-26a9-80a1-8002-c7ef4c7a0d71" class="strokes"><g class="stroke-shape"><rect width="4.16666666666697" height="12.5" x="2.08333333333303" stroke-linejoin="round" transform="matrix(1.000000, 0.000000, 0.000000, 1.000000, 0.000000, 0.000000)" style="fill: none; stroke-width: 2; stroke: rgb(255, 252, 247);" ry="0" stroke-linecap="round" rx="0" y="9.375"/></g></g></g><g id="shape-2456870b-26a9-80a1-8002-c7ef4c7a0d72"><g class="fills" id="fills-2456870b-26a9-80a1-8002-c7ef4c7a0d72"><ellipse cy="4.166666666666629" stroke-linejoin="round" transform="matrix(1.000000, 0.000000, 0.000000, 1.000000, 0.000000, 0.000000)" style="fill: none;" ry="2.0833333333333712" fill="none" stroke-linecap="round" rx="2.083333333333485" cx="4.166666666666515"/></g><g id="strokes-2456870b-26a9-80a1-8002-c7ef4c7a0d72" class="strokes"><g class="stroke-shape"><ellipse stroke-linecap="round" stroke-linejoin="round" rx="2.083333333333485" ry="2.0833333333333712" cx="4.166666666666515" cy="4.166666666666629" transform="matrix(1.000000, 0.000000, 0.000000, 1.000000, 0.000000, 0.000000)" style="fill: none; stroke-width: 2; stroke: rgb(255, 252, 247);"/></g></g></g></g></svg>