<svg xmlns:xlink="http://www.w3.org/1999/xlink" width="26" xmlns="http://www.w3.org/2000/svg" height="26" id="screenshot-eba46612-bd99-80f6-8002-e30f44cdac80" viewBox="-1 -1 26 26" style="-webkit-print-color-adjust: exact;" fill="none" version="1.1"><g id="shape-eba46612-bd99-80f6-8002-e30f44cdac80" width="24" class="feather feather-message-circle" height="24" rx="0" ry="0" style="fill: rgb(0, 0, 0);"><g id="shape-eba46612-bd99-80f6-8002-e30f44cf900d"><g class="fills" id="fills-eba46612-bd99-80f6-8002-e30f44cf900d"><path fill="none" stroke-linecap="round" stroke-linejoin="round" rx="0" ry="0" d="M21.000,11.500C21.003,12.820,20.695,14.122,20.100,15.300C18.661,18.179,15.719,19.999,12.500,20.000C11.180,20.003,9.878,19.695,8.700,19.100L3.000,21.000L4.900,15.300C4.305,14.122,3.997,12.820,4.000,11.500C4.001,8.281,5.821,5.339,8.700,3.900C9.878,3.305,11.180,2.997,12.500,3.000L13.000,3.000C17.316,3.238,20.762,6.684,21.000,11.000L21.000,11.500ZZ" style="fill: none;"/></g><g id="strokes-eba46612-bd99-80f6-8002-e30f44cf900d" class="strokes"><g class="stroke-shape"><path stroke-linecap="round" stroke-linejoin="round" rx="0" ry="0" d="M21.000,11.500C21.003,12.820,20.695,14.122,20.100,15.300C18.661,18.179,15.719,19.999,12.500,20.000C11.180,20.003,9.878,19.695,8.700,19.100L3.000,21.000L4.900,15.300C4.305,14.122,3.997,12.820,4.000,11.500C4.001,8.281,5.821,5.339,8.700,3.900C9.878,3.305,11.180,2.997,12.500,3.000L13.000,3.000C17.316,3.238,20.762,6.684,21.000,11.000L21.000,11.500ZZ" style="fill: none; stroke-width: 2; stroke: rgb(254, 251, 251);"/></g></g></g></g></svg>