<svg xmlns:xlink="http://www.w3.org/1999/xlink" width="26" xmlns="http://www.w3.org/2000/svg" height="26" id="screenshot-eba46612-bd99-80f6-8002-e5bcfc48a155" viewBox="-1 -1 26 26" style="-webkit-print-color-adjust: exact;" fill="none" version="1.1"><g id="shape-eba46612-bd99-80f6-8002-e5bcfc48a155" width="24" class="feather feather-external-link" height="24" rx="0" ry="0" style="fill: rgb(0, 0, 0);"><g id="shape-eba46612-bd99-80f6-8002-e5bcfc4a3dac"><g class="fills" id="fills-eba46612-bd99-80f6-8002-e5bcfc4a3dac"><path fill="none" stroke-linecap="round" stroke-linejoin="round" rx="0" ry="0" d="M18.000,13.000L18.000,19.000C18.000,20.105,17.105,21.000,16.000,21.000L5.000,21.000C3.895,21.000,3.000,20.105,3.000,19.000L3.000,8.000C3.000,6.895,3.895,6.000,5.000,6.000L11.000,6.000" style="fill: none;"/></g><g id="strokes-eba46612-bd99-80f6-8002-e5bcfc4a3dac" class="strokes"><g class="stroke-shape"><path stroke-linecap="round" stroke-linejoin="round" rx="0" ry="0" d="M18.000,13.000L18.000,19.000C18.000,20.105,17.105,21.000,16.000,21.000L5.000,21.000C3.895,21.000,3.000,20.105,3.000,19.000L3.000,8.000C3.000,6.895,3.895,6.000,5.000,6.000L11.000,6.000" style="fill: none; stroke-width: 2; stroke: rgb(254, 251, 251);"/></g></g></g><g id="shape-eba46612-bd99-80f6-8002-e5bcfc4a6fff"><g class="fills" id="fills-eba46612-bd99-80f6-8002-e5bcfc4a6fff"><path fill="none" stroke-linecap="round" stroke-linejoin="round" rx="0" ry="0" d="M15.000,3.000L21.000,3.000L21.000,9.000" style="fill: none;"/></g><g id="strokes-eba46612-bd99-80f6-8002-e5bcfc4a6fff" class="strokes"><g class="stroke-shape"><path stroke-linecap="round" stroke-linejoin="round" rx="0" ry="0" d="M15.000,3.000L21.000,3.000L21.000,9.000" style="fill: none; stroke-width: 2; stroke: rgb(254, 251, 251);"/></g></g></g><g id="shape-eba46612-bd99-80f6-8002-e5bcfc4a9e87"><g class="fills" id="fills-eba46612-bd99-80f6-8002-e5bcfc4a9e87"><path fill="none" stroke-linejoin="round" stroke-linecap="round" rx="0" ry="0" d="M10.000,14.000L21.000,3.000" style="fill: none;"/></g><g id="strokes-eba46612-bd99-80f6-8002-e5bcfc4a9e87" class="strokes"><g class="stroke-shape"><path stroke-linejoin="round" stroke-linecap="round" rx="0" ry="0" d="M10.000,14.000L21.000,3.000" style="fill: none; stroke-width: 2; stroke: rgb(254, 251, 251);"/></g></g></g></g></svg>